<svg width="46" height="46" viewBox="0 0 46 46" fill="none" xmlns="http://www.w3.org/2000/svg">
<path d="M36.8 0H9.2C4.11898 0 0 4.11898 0 9.2V36.8C0 41.881 4.11898 46 9.2 46H36.8C41.881 46 46 41.881 46 36.8V9.2C46 4.11898 41.881 0 36.8 0Z" fill="url(#paint0_linear_30_276)"/>
<path d="M32.66 19.55H13.34C12.3238 19.55 11.5 20.3738 11.5 21.39V24.61C11.5 25.6263 12.3238 26.45 13.34 26.45H32.66C33.6762 26.45 34.5 25.6263 34.5 24.61V21.39C34.5 20.3738 33.6762 19.55 32.66 19.55Z" fill="white"/>
<path d="M27.37 17.9399H18.63C17.8678 17.9399 17.25 18.5578 17.25 19.3199V20.0099C17.25 20.7721 17.8678 21.3899 18.63 21.3899H27.37C28.1322 21.3899 28.75 20.7721 28.75 20.0099V19.3199C28.75 18.5578 28.1322 17.9399 27.37 17.9399Z" fill="#F59E0B"/>
<path d="M16.1001 29.2099C17.6244 29.2099 18.8601 27.9742 18.8601 26.4499C18.8601 24.9256 17.6244 23.6899 16.1001 23.6899C14.5758 23.6899 13.3401 24.9256 13.3401 26.4499C13.3401 27.9742 14.5758 29.2099 16.1001 29.2099Z" fill="#1F2937"/>
<path d="M29.8999 29.2099C31.4242 29.2099 32.6599 27.9742 32.6599 26.4499C32.6599 24.9256 31.4242 23.6899 29.8999 23.6899C28.3756 23.6899 27.1399 24.9256 27.1399 26.4499C27.1399 27.9742 28.3756 29.2099 29.8999 29.2099Z" fill="#1F2937"/>
<path d="M16.1 27.6C16.7351 27.6 17.25 27.0852 17.25 26.45C17.25 25.8149 16.7351 25.3 16.1 25.3C15.4648 25.3 14.95 25.8149 14.95 26.45C14.95 27.0852 15.4648 27.6 16.1 27.6Z" fill="#F59E0B"/>
<path d="M29.9 27.6C30.5351 27.6 31.05 27.0852 31.05 26.45C31.05 25.8149 30.5351 25.3 29.9 25.3C29.2649 25.3 28.75 25.8149 28.75 26.45C28.75 27.0852 29.2649 27.6 29.9 27.6Z" fill="#F59E0B"/>
<defs>
<linearGradient id="paint0_linear_30_276" x1="0" y1="0" x2="4600" y2="4600" gradientUnits="userSpaceOnUse">
<stop stop-color="#374151"/>
<stop offset="1" stop-color="#1F2937"/>
</linearGradient>
</defs>
</svg>

